<?xml version="1.0" encoding="UTF-8" standalone="no"?>
<svg
   height="16"
   width="16"
   version="1.1"
   id="svg6"
   sodipodi:docname="prefs.svg"
   inkscape:version="1.4.2 (ebf0e940d0, 2025-05-08)"
   xmlns:inkscape="http://www.inkscape.org/namespaces/inkscape"
   xmlns:sodipodi="http://sodipodi.sourceforge.net/DTD/sodipodi-0.dtd"
   xmlns="http://www.w3.org/2000/svg"
   xmlns:svg="http://www.w3.org/2000/svg"
   xmlns:rdf="http://www.w3.org/1999/02/22-rdf-syntax-ns#"
   xmlns:cc="http://creativecommons.org/ns#"
   xmlns:dc="http://purl.org/dc/elements/1.1/">
  <sodipodi:namedview
     id="namedview1"
     pagecolor="#ffffff"
     bordercolor="#000000"
     borderopacity="0.25"
     inkscape:showpageshadow="2"
     inkscape:pageopacity="0.0"
     inkscape:pagecheckerboard="0"
     inkscape:deskcolor="#d1d1d1"
     inkscape:zoom="68.0625"
     inkscape:cx="7.9926538"
     inkscape:cy="8"
     inkscape:window-width="2560"
     inkscape:window-height="1300"
     inkscape:window-x="0"
     inkscape:window-y="0"
     inkscape:window-maximized="1"
     inkscape:current-layer="svg6"
     showgrid="true">
    <inkscape:grid
       id="grid1"
       units="px"
       originx="0"
       originy="0"
       spacingx="1"
       spacingy="1"
       empcolor="#0099e5"
       empopacity="0.30196078"
       color="#0099e5"
       opacity="0.14901961"
       empspacing="5"
       enabled="true"
       visible="true" />
  </sodipodi:namedview>
  <metadata
     id="metadata12">
    <rdf:RDF>
      <cc:Work
         rdf:about="">
        <dc:format>image/svg+xml</dc:format>
        <dc:type
           rdf:resource="http://purl.org/dc/dcmitype/StillImage" />
      </cc:Work>
    </rdf:RDF>
  </metadata>
  <defs
     id="defs10" />
  <path
     style="font-variation-settings:normal;opacity:1;vector-effect:none;fill:#ffffff;fill-opacity:1;stroke:none;stroke-width:0.874196;stroke-linecap:butt;stroke-linejoin:miter;stroke-miterlimit:4;stroke-dasharray:none;stroke-dashoffset:0;stroke-opacity:1;marker:none"
     d="m 7.1184573,1.0137741 c -0.1721327,0 -0.3197513,0.7491195 -0.431976,1.9174271 A 5.2451791,5.2451791 0 0 0 5.3307937,3.4946482 C 4.4242391,2.7467443 3.7878897,2.3227622 3.666064,2.444588 L 2.4298956,3.6807564 C 2.3081209,3.8025313 2.73265,4.437843 3.4799558,5.3437787 A 5.2451791,5.2451791 0 0 0 2.9199236,6.7011737 C 1.7494302,6.8134359 0.99908173,6.960834 0.99908173,7.1331496 v 1.7483931 c 0,0.1721327 0.74911947,0.3197513 1.91742707,0.431976 a 5.2451791,5.2451791 0 0 0 0.563447,1.3556873 c -0.7479039,0.906555 -1.1718859,1.542905 -1.0500602,1.66473 l 1.2361684,1.236168 c 0.1217749,0.121775 0.7570866,-0.302754 1.6630223,-1.05006 a 5.2451791,5.2451791 0 0 0 1.357395,0.560032 c 0.1122623,1.170494 0.2596603,1.920842 0.431976,1.920842 h 1.7483931 c 0.1721327,0 0.3197513,-0.749119 0.4319759,-1.917427 a 5.2451791,5.2451791 0 0 0 1.3556877,-0.563447 c 0.906555,0.747904 1.542905,1.171886 1.66473,1.05006 l 1.236168,-1.236168 c 0.121775,-0.121775 -0.302755,-0.757086 -1.050061,-1.663023 a 5.2451791,5.2451791 0 0 0 0.560033,-1.3573943 c 1.170493,-0.1122623 1.920842,-0.2596603 1.920842,-0.431976 V 7.1331496 c 0,-0.1721327 -0.749119,-0.3197513 -1.917427,-0.4319759 A 5.2451791,5.2451791 0 0 0 12.505351,5.3454861 C 13.253256,4.4389315 13.677238,3.802582 13.555412,3.6807564 L 12.319244,2.444588 C 12.197469,2.3228133 11.562157,2.7473424 10.656221,3.4946482 A 5.2451791,5.2451791 0 0 0 9.2988263,2.934616 C 9.1865641,1.7641226 9.039166,1.0137741 8.8668504,1.0137741 Z M 7.9926538,5.1662075 A 2.8411386,2.8411386 0 0 1 10.833792,8.0073462 2.8411386,2.8411386 0 0 1 7.9926538,10.848485 2.8411386,2.8411386 0 0 1 5.1515151,8.0073462 2.8411386,2.8411386 0 0 1 7.9926538,5.1662075 Z"
     id="rect1015" />
</svg>
